<svg width="235" height="46" viewBox="0 0 235 46" fill="none" xmlns="http://www.w3.org/2000/svg">
<g filter="url(#filter0_d_0_286)">
<path fill-rule="evenodd" clip-rule="evenodd" d="M131.869 13.8624C132.867 13.8624 133.674 13.5792 134.288 13.0128C134.902 12.4464 135.21 11.7312 135.21 10.8672C135.21 10.0416 134.902 9.3648 134.288 8.8368C133.674 8.3088 132.867 8.0448 131.869 8.0448C130.87 8.0448 130.064 8.3232 129.45 8.88C128.835 9.4368 128.528 10.128 128.528 10.9536C128.528 11.7792 128.835 12.4704 129.45 13.0272C130.064 13.584 130.87 13.8624 131.869 13.8624ZM68.5376 31.2V26.6784H58.9184V11.04H53.216V31.2H68.5376ZM78.3008 31.4592C79.9904 31.4592 81.5072 31.1136 82.8512 30.4224C84.1952 29.7312 85.2416 28.7712 85.9904 27.5424C86.7392 26.3136 87.1136 24.9216 87.1136 23.3664C87.1136 21.8112 86.7392 20.424 85.9904 19.2048C85.2416 17.9856 84.1952 17.0352 82.8512 16.3536C81.5072 15.672 79.9904 15.3312 78.3008 15.3312C76.6112 15.3312 75.0992 15.672 73.7648 16.3536C72.4304 17.0352 71.384 17.9904 70.6256 19.2192C69.8672 20.448 69.488 21.8304 69.488 23.3664C69.488 24.9216 69.8672 26.3136 70.6256 27.5424C71.384 28.7712 72.4352 29.7312 73.7792 30.4224C75.1232 31.1136 76.6304 31.4592 78.3008 31.4592ZM75.9392 26.1168C76.5536 26.7792 77.3408 27.1104 78.3008 27.1104C79.2608 27.1104 80.048 26.7792 80.6624 26.1168C81.2768 25.4544 81.584 24.5376 81.584 23.3664C81.584 22.2144 81.2768 21.312 80.6624 20.6592C80.048 20.0064 79.2608 19.68 78.3008 19.68C77.3408 19.68 76.5536 20.0064 75.9392 20.6592C75.3248 21.312 75.0176 22.2144 75.0176 23.3664C75.0176 24.5376 75.3248 25.4544 75.9392 26.1168ZM97.28 37.0464C100.237 37.0464 102.502 36.3216 104.077 34.872C105.651 33.4224 106.438 31.248 106.438 28.3488V15.5904H101.226V17.4912C100.189 16.0512 98.5568 15.3312 96.3296 15.3312C94.9472 15.3312 93.6704 15.6432 92.4992 16.2672C91.328 16.8912 90.3968 17.7744 89.7056 18.9168C89.0144 20.0592 88.6688 21.3696 88.6688 22.848C88.6688 24.3456 89.0144 25.6656 89.7056 26.808C90.3968 27.9504 91.328 28.8336 92.4992 29.4576C93.6704 30.0816 94.9472 30.3936 96.3296 30.3936C98.3648 30.3936 99.9104 29.7792 100.966 28.5504V29.0688C100.966 30.3168 100.63 31.2576 99.9584 31.8912C99.2864 32.5248 98.2304 32.8416 96.7904 32.8416C95.8496 32.8416 94.8944 32.6928 93.9248 32.3952C92.9552 32.0976 92.1536 31.6896 91.52 31.1712L89.5328 35.0016C90.4736 35.6736 91.616 36.1824 92.96 36.528C94.304 36.8736 95.744 37.0464 97.28 37.0464ZM95.1776 25.152C95.8304 25.7472 96.6464 26.0448 97.6256 26.0448C98.6048 26.0448 99.416 25.7472 100.059 25.152C100.702 24.5568 101.024 23.7888 101.024 22.848C101.024 21.9072 100.707 21.144 100.074 20.5584C99.44 19.9728 98.624 19.68 97.6256 19.68C96.6272 19.68 95.8064 19.9728 95.1632 20.5584C94.52 21.144 94.1984 21.9072 94.1984 22.848C94.1984 23.7888 94.5248 24.5568 95.1776 25.152ZM117.786 31.4592C119.475 31.4592 120.992 31.1136 122.336 30.4224C123.68 29.7312 124.726 28.7712 125.475 27.5424C126.224 26.3136 126.598 24.9216 126.598 23.3664C126.598 21.8112 126.224 20.424 125.475 19.2048C124.726 17.9856 123.68 17.0352 122.336 16.3536C120.992 15.672 119.475 15.3312 117.786 15.3312C116.096 15.3312 114.584 15.672 113.25 16.3536C111.915 17.0352 110.869 17.9904 110.11 19.2192C109.352 20.448 108.973 21.8304 108.973 23.3664C108.973 24.9216 109.352 26.3136 110.11 27.5424C110.869 28.7712 111.92 29.7312 113.264 30.4224C114.608 31.1136 116.115 31.4592 117.786 31.4592ZM115.424 26.1168C116.038 26.7792 116.826 27.1104 117.786 27.1104C118.746 27.1104 119.533 26.7792 120.147 26.1168C120.762 25.4544 121.069 24.5376 121.069 23.3664C121.069 22.2144 120.762 21.312 120.147 20.6592C119.533 20.0064 118.746 19.68 117.786 19.68C116.826 19.68 116.038 20.0064 115.424 20.6592C114.81 21.312 114.502 22.2144 114.502 23.3664C114.502 24.5376 114.81 25.4544 115.424 26.1168ZM134.605 15.5904V31.2H129.133V15.5904H134.605ZM143.619 36.7872V29.8176C144.694 30.912 146.144 31.4592 147.968 31.4592C149.389 31.4592 150.68 31.128 151.842 30.4656C153.003 29.8032 153.925 28.8624 154.606 27.6432C155.288 26.424 155.629 25.008 155.629 23.3952C155.629 21.7824 155.288 20.3664 154.606 19.1472C153.925 17.928 153.003 16.9872 151.842 16.3248C150.68 15.6624 149.389 15.3312 147.968 15.3312C145.914 15.3312 144.378 15.936 143.36 17.1456V15.5904H138.147V36.7872H143.619ZM144.454 26.1168C145.069 26.7792 145.856 27.1104 146.816 27.1104C147.776 27.1104 148.563 26.7792 149.178 26.1168C149.792 25.4544 150.099 24.5472 150.099 23.3952C150.099 22.2432 149.792 21.336 149.178 20.6736C148.563 20.0112 147.776 19.68 146.816 19.68C145.856 19.68 145.069 20.0112 144.454 20.6736C143.84 21.336 143.533 22.2432 143.533 23.3952C143.533 24.5472 143.84 25.4544 144.454 26.1168ZM163.837 31.4592C165.469 31.4592 166.866 31.2384 168.027 30.7968C169.189 30.3552 170.067 29.7456 170.662 28.968C171.258 28.1904 171.555 27.312 171.555 26.3328C171.555 25.1424 171.243 24.216 170.619 23.5536C169.995 22.8912 169.261 22.4352 168.416 22.1856C167.571 21.936 166.506 21.7152 165.219 21.5232C164.202 21.3696 163.472 21.2208 163.03 21.0768C162.589 20.9328 162.368 20.6784 162.368 20.3136C162.368 19.9872 162.57 19.7232 162.973 19.5216C163.376 19.32 164.01 19.2192 164.874 19.2192C166.486 19.2192 167.984 19.6032 169.366 20.3712L171.008 16.656C170.259 16.2336 169.328 15.9072 168.214 15.6768C167.101 15.4464 165.978 15.3312 164.845 15.3312C163.251 15.3312 161.883 15.5568 160.741 16.008C159.598 16.4592 158.73 17.0736 158.134 17.8512C157.539 18.6288 157.242 19.5168 157.242 20.5152C157.242 21.7248 157.558 22.6656 158.192 23.3376C158.826 24.0096 159.579 24.4704 160.453 24.72C161.326 24.9696 162.387 25.1712 163.635 25.3248C164.614 25.4592 165.33 25.5984 165.781 25.7424C166.232 25.8864 166.458 26.1312 166.458 26.4768C166.458 26.8224 166.27 27.0864 165.896 27.2688C165.522 27.4512 164.893 27.5424 164.01 27.5424C163.05 27.5424 162.08 27.4128 161.101 27.1536C160.122 26.8944 159.277 26.544 158.566 26.1024L156.925 29.8464C157.693 30.3264 158.71 30.7152 159.978 31.0128C161.245 31.3104 162.531 31.4592 163.837 31.4592ZM183.046 30.9696C182.24 31.296 181.386 31.4592 180.483 31.4592C178.467 31.4592 176.859 30.864 175.659 29.6736C174.459 28.4832 173.859 26.6976 173.859 24.3168V15.5904H179.331V23.424C179.331 24.5952 179.552 25.4496 179.994 25.9872C180.435 26.5248 181.078 26.7936 181.923 26.7936C182.787 26.7936 183.493 26.4912 184.04 25.8864C184.587 25.2816 184.861 24.3552 184.861 23.1072V15.5904H190.333V31.2H185.12V29.5296C184.544 30.1632 183.853 30.6432 183.046 30.9696ZM199.318 31.2V23.4528C199.318 22.2816 199.568 21.408 200.067 20.832C200.566 20.256 201.238 19.968 202.083 19.968C203.658 19.968 204.445 21.0336 204.445 23.1648V31.2H209.917V23.4528C209.917 22.2816 210.166 21.408 210.666 20.832C211.165 20.256 211.827 19.968 212.653 19.968C213.402 19.968 213.982 20.2272 214.395 20.7456C214.808 21.264 215.014 22.0704 215.014 23.1648V31.2H220.486V22.272C220.486 19.9488 219.915 18.2112 218.773 17.0592C217.63 15.9072 216.099 15.3312 214.179 15.3312C213.066 15.3312 212.038 15.5424 211.098 15.9648C210.157 16.3872 209.379 16.992 208.765 17.7792C208.227 16.9536 207.526 16.3392 206.662 15.936C205.798 15.5328 204.819 15.3312 203.725 15.3312C202.784 15.3312 201.915 15.4896 201.118 15.8064C200.322 16.1232 199.635 16.5984 199.059 17.232V15.5904H193.846V31.2H199.318ZM228.594 30.5376C227.97 31.152 227.187 31.4592 226.246 31.4592C225.325 31.4592 224.547 31.152 223.914 30.5376C223.28 29.9232 222.963 29.1456 222.963 28.2048C222.963 27.2448 223.275 26.4672 223.899 25.872C224.523 25.2768 225.306 24.9792 226.246 24.9792C227.206 24.9792 227.994 25.2768 228.608 25.872C229.222 26.4672 229.53 27.2448 229.53 28.2048C229.53 29.1456 229.218 29.9232 228.594 30.5376Z" fill="#D8D8D8"/>
<path d="M134.288 13.0128L134.627 13.3804L134.627 13.3804L134.288 13.0128ZM134.288 8.8368L134.614 8.45759V8.45759L134.288 8.8368ZM129.45 8.88L129.785 9.25049L129.45 8.88ZM68.5376 26.6784H69.0376V26.1784H68.5376V26.6784ZM68.5376 31.2V31.7H69.0376V31.2H68.5376ZM58.9184 26.6784H58.4184V27.1784H58.9184V26.6784ZM58.9184 11.04H59.4184V10.54H58.9184V11.04ZM53.216 11.04V10.54H52.716V11.04H53.216ZM53.216 31.2H52.716V31.7H53.216V31.2ZM82.8512 30.4224L83.0799 30.867V30.867L82.8512 30.4224ZM85.9904 27.5424L86.4174 27.8026L85.9904 27.5424ZM82.8512 16.3536L83.0774 15.9077H83.0774L82.8512 16.3536ZM73.7648 16.3536L73.5374 15.9083L73.5374 15.9083L73.7648 16.3536ZM70.6256 19.2192L71.0511 19.4818L70.6256 19.2192ZM70.6256 27.5424L70.2001 27.805L70.2001 27.805L70.6256 27.5424ZM75.9392 26.1168L76.3058 25.7768L76.3058 25.7768L75.9392 26.1168ZM80.6624 26.1168L80.2958 25.7768L80.2958 25.7768L80.6624 26.1168ZM80.6624 20.6592L80.2983 21.0019L80.6624 20.6592ZM75.9392 20.6592L76.3033 21.0019V21.0019L75.9392 20.6592ZM104.077 34.872L104.415 35.2398V35.2398L104.077 34.872ZM106.438 15.5904H106.938V15.0904H106.438V15.5904ZM101.226 15.5904V15.0904H100.726V15.5904H101.226ZM101.226 17.4912L100.82 17.7834L101.726 19.0414V17.4912H101.226ZM92.4992 16.2672L92.2641 15.8259L92.4992 16.2672ZM89.7056 26.808L90.1334 26.5492L89.7056 26.808ZM100.966 28.5504H101.466V27.2014L100.587 28.2245L100.966 28.5504ZM91.52 31.1712L91.8366 30.7842L91.3599 30.3941L91.0762 30.9409L91.52 31.1712ZM89.5328 35.0016L89.089 34.7713L88.8892 35.1564L89.2422 35.4085L89.5328 35.0016ZM92.96 36.528L92.8355 37.0122L92.96 36.528ZM95.1776 25.152L94.8407 25.5215L94.8407 25.5215L95.1776 25.152ZM100.059 25.152L100.399 25.519L100.399 25.519L100.059 25.152ZM100.074 20.5584L99.7342 20.9256V20.9256L100.074 20.5584ZM125.475 27.5424L125.902 27.8026L125.475 27.5424ZM122.336 16.3536L122.562 15.9077L122.336 16.3536ZM113.25 16.3536L113.022 15.9083V15.9083L113.25 16.3536ZM110.11 19.2192L110.536 19.4818L110.11 19.2192ZM110.11 27.5424L109.685 27.805V27.805L110.11 27.5424ZM113.264 30.4224L113.035 30.867L113.035 30.867L113.264 30.4224ZM115.424 26.1168L115.791 25.7768L115.424 26.1168ZM120.147 26.1168L119.781 25.7768V25.7768L120.147 26.1168ZM120.147 20.6592L119.783 21.0019L119.783 21.0019L120.147 20.6592ZM115.424 20.6592L115.788 21.0019L115.424 20.6592ZM134.605 31.2V31.7H135.105V31.2H134.605ZM134.605 15.5904H135.105V15.0904H134.605V15.5904ZM129.133 31.2H128.633V31.7H129.133V31.2ZM129.133 15.5904V15.0904H128.633V15.5904H129.133ZM143.619 29.8176L143.976 29.4672L143.119 28.5952V29.8176H143.619ZM143.619 36.7872V37.2872H144.119V36.7872H143.619ZM151.842 30.4656L151.594 30.0313V30.0313L151.842 30.4656ZM154.606 27.6432L154.17 27.3992V27.3992L154.606 27.6432ZM154.606 19.1472L154.17 19.3912V19.3912L154.606 19.1472ZM151.842 16.3248L151.594 16.7591L151.842 16.3248ZM143.36 17.1456H142.86V18.5166L143.743 17.4675L143.36 17.1456ZM143.36 15.5904H143.86V15.0904H143.36V15.5904ZM138.147 15.5904V15.0904H137.647V15.5904H138.147ZM138.147 36.7872H137.647V37.2872H138.147V36.7872ZM144.454 26.1168L144.821 25.7768L144.454 26.1168ZM149.178 26.1168L148.811 25.7768V25.7768L149.178 26.1168ZM149.178 20.6736L148.811 21.0136V21.0136L149.178 20.6736ZM168.027 30.7968L167.85 30.3294L168.027 30.7968ZM170.662 28.968L170.265 28.6641L170.662 28.968ZM168.416 22.1856L168.558 21.7061V21.7061L168.416 22.1856ZM165.219 21.5232L165.145 22.0176L165.145 22.0177L165.219 21.5232ZM163.03 21.0768L162.875 21.5522L162.875 21.5522L163.03 21.0768ZM162.973 19.5216L162.749 19.0744L162.749 19.0744L162.973 19.5216ZM169.366 20.3712L169.124 20.8083L169.602 21.0743L169.824 20.5733L169.366 20.3712ZM171.008 16.656L171.465 16.8581L171.649 16.4433L171.254 16.2205L171.008 16.656ZM168.214 15.6768L168.113 16.1664V16.1664L168.214 15.6768ZM160.741 16.008L160.924 16.473L160.741 16.008ZM158.134 17.8512L158.531 18.1551V18.1551L158.134 17.8512ZM158.192 23.3376L157.828 23.6806V23.6806L158.192 23.3376ZM160.453 24.72L160.315 25.2008L160.453 24.72ZM163.635 25.3248L163.703 24.8294L163.696 24.8285L163.635 25.3248ZM165.781 25.7424L165.933 25.2661H165.933L165.781 25.7424ZM165.896 27.2688L165.677 26.8193V26.8193L165.896 27.2688ZM161.101 27.1536L161.229 26.6702L161.101 27.1536ZM158.566 26.1024L158.83 25.6778L158.34 25.3731L158.108 25.9016L158.566 26.1024ZM156.925 29.8464L156.467 29.6456L156.293 30.0414L156.66 30.2704L156.925 29.8464ZM159.978 31.0128L160.092 30.526L159.978 31.0128ZM183.046 30.9696L182.859 30.5061L183.046 30.9696ZM175.659 29.6736L176.011 29.3186L176.011 29.3186L175.659 29.6736ZM173.859 15.5904V15.0904H173.359V15.5904H173.859ZM179.331 15.5904H179.831V15.0904H179.331V15.5904ZM184.04 25.8864L183.669 25.5509L184.04 25.8864ZM184.861 15.5904V15.0904H184.361V15.5904H184.861ZM190.333 15.5904H190.833V15.0904H190.333V15.5904ZM190.333 31.2V31.7H190.833V31.2H190.333ZM185.12 31.2H184.62V31.7H185.12V31.2ZM185.12 29.5296H185.62V28.2363L184.75 29.1933L185.12 29.5296ZM199.318 31.2V31.7H199.818V31.2H199.318ZM200.067 20.832L199.689 20.5045L199.689 20.5045L200.067 20.832ZM204.445 31.2H203.945V31.7H204.445V31.2ZM209.917 31.2V31.7H210.417V31.2H209.917ZM210.666 20.832L210.288 20.5045L210.288 20.5045L210.666 20.832ZM215.014 31.2H214.514V31.7H215.014V31.2ZM220.486 31.2V31.7H220.986V31.2H220.486ZM218.773 17.0592L218.418 17.4113V17.4113L218.773 17.0592ZM211.098 15.9648L211.302 16.4209L211.302 16.4209L211.098 15.9648ZM208.765 17.7792L208.346 18.052L208.728 18.639L209.159 18.0868L208.765 17.7792ZM201.118 15.8064L201.303 16.271L201.118 15.8064ZM199.059 17.232H198.559V18.5253L199.429 17.5683L199.059 17.232ZM199.059 15.5904H199.559V15.0904H199.059V15.5904ZM193.846 15.5904V15.0904H193.346V15.5904H193.846ZM193.846 31.2H193.346V31.7H193.846V31.2ZM228.594 30.5376L228.944 30.8939V30.8939L228.594 30.5376ZM223.914 30.5376L223.566 30.8965V30.8966L223.914 30.5376ZM223.899 25.872L224.244 26.2338V26.2338L223.899 25.872ZM228.608 25.872L228.956 25.5129V25.5129L228.608 25.872ZM133.949 12.6452C133.444 13.1104 132.768 13.3624 131.869 13.3624V14.3624C132.967 14.3624 133.903 14.048 134.627 13.3804L133.949 12.6452ZM134.71 10.8672C134.71 11.5969 134.457 12.177 133.949 12.6452L134.627 13.3804C135.348 12.7158 135.71 11.8655 135.71 10.8672H134.71ZM133.962 9.21601C134.464 9.64695 134.71 10.1841 134.71 10.8672H135.71C135.71 9.89907 135.341 9.08265 134.614 8.45759L133.962 9.21601ZM131.869 8.5448C132.776 8.5448 133.458 8.78289 133.962 9.21601L134.614 8.45759C133.889 7.83471 132.958 7.5448 131.869 7.5448V8.5448ZM129.785 9.25049C130.29 8.79337 130.968 8.5448 131.869 8.5448V7.5448C130.773 7.5448 129.838 7.85303 129.114 8.50951L129.785 9.25049ZM129.028 10.9536C129.028 10.2698 129.275 9.71298 129.785 9.25049L129.114 8.50951C128.395 9.16062 128.028 9.98616 128.028 10.9536H129.028ZM129.785 12.6567C129.275 12.1942 129.028 11.6374 129.028 10.9536H128.028C128.028 11.921 128.395 12.7466 129.114 13.3977L129.785 12.6567ZM131.869 13.3624C130.968 13.3624 130.29 13.1138 129.785 12.6567L129.114 13.3977C129.838 14.0542 130.773 14.3624 131.869 14.3624V13.3624ZM68.0376 26.6784V31.2H69.0376V26.6784H68.0376ZM58.9184 27.1784H68.5376V26.1784H58.9184V27.1784ZM58.4184 11.04V26.6784H59.4184V11.04H58.4184ZM53.216 11.54H58.9184V10.54H53.216V11.54ZM53.716 31.2V11.04H52.716V31.2H53.716ZM68.5376 30.7H53.216V31.7H68.5376V30.7ZM82.6225 29.9778C81.3573 30.6285 79.9204 30.9592 78.3008 30.9592V31.9592C80.0604 31.9592 81.6571 31.5987 83.0799 30.867L82.6225 29.9778ZM85.5634 27.2822C84.865 28.4284 83.889 29.3264 82.6225 29.9778L83.0799 30.867C84.5014 30.136 85.6182 29.114 86.4174 27.8026L85.5634 27.2822ZM86.6136 23.3664C86.6136 24.8375 86.2606 26.1381 85.5634 27.2822L86.4174 27.8026C87.2178 26.4891 87.6136 25.0057 87.6136 23.3664H86.6136ZM85.5643 19.4665C86.2606 20.6002 86.6136 21.8953 86.6136 23.3664H87.6136C87.6136 21.7271 87.2178 20.2478 86.4165 18.9431L85.5643 19.4665ZM82.6251 16.7995C83.8913 17.4417 84.8665 18.3302 85.5643 19.4665L86.4165 18.9431C85.6167 17.641 84.4991 16.6287 83.0774 15.9077L82.6251 16.7995ZM78.3008 15.8312C79.9214 15.8312 81.3592 16.1576 82.6251 16.7995L83.0774 15.9077C81.6552 15.1864 80.0594 14.8312 78.3008 14.8312V15.8312ZM73.9922 16.7989C75.2477 16.1576 76.6801 15.8312 78.3008 15.8312V14.8312C76.5423 14.8312 74.9507 15.1864 73.5374 15.9083L73.9922 16.7989ZM71.0511 19.4818C71.7596 18.3339 72.7361 17.4405 73.9922 16.7989L73.5374 15.9083C72.1247 16.6299 71.0084 17.6469 70.2001 18.9566L71.0511 19.4818ZM69.988 23.3664C69.988 21.917 70.3445 20.6266 71.0511 19.4818L70.2001 18.9566C69.3899 20.2694 68.988 21.7438 68.988 23.3664H69.988ZM71.0511 27.2798C70.3452 26.136 69.988 24.8363 69.988 23.3664H68.988C68.988 25.0069 69.3892 26.4912 70.2001 27.805L71.0511 27.2798ZM74.0079 29.9778C72.7409 29.3262 71.7594 28.4274 71.0511 27.2798L70.2001 27.805C71.0086 29.115 72.1295 30.1362 73.5505 30.867L74.0079 29.9778ZM78.3008 30.9592C76.7014 30.9592 75.2739 30.6289 74.0079 29.9778L73.5505 30.867C74.9725 31.5983 76.5594 31.9592 78.3008 31.9592V30.9592ZM78.3008 26.6104C77.4702 26.6104 76.8191 26.3302 76.3058 25.7768L75.5726 26.4568C76.2881 27.2282 77.2114 27.6104 78.3008 27.6104V26.6104ZM80.2958 25.7768C79.7825 26.3302 79.1314 26.6104 78.3008 26.6104V27.6104C79.3902 27.6104 80.3135 27.2282 81.029 26.4568L80.2958 25.7768ZM81.084 23.3664C81.084 24.45 80.8014 25.2317 80.2958 25.7768L81.029 26.4568C81.7522 25.6771 82.084 24.6252 82.084 23.3664H81.084ZM80.2983 21.0019C80.8026 21.5377 81.084 22.3041 81.084 23.3664H82.084C82.084 22.1247 81.751 21.0863 81.0265 20.3165L80.2983 21.0019ZM78.3008 20.18C79.1339 20.18 79.7856 20.4572 80.2983 21.0019L81.0265 20.3165C80.3104 19.5556 79.3877 19.18 78.3008 19.18V20.18ZM76.3033 21.0019C76.816 20.4572 77.4677 20.18 78.3008 20.18V19.18C77.2139 19.18 76.2912 19.5556 75.5751 20.3165L76.3033 21.0019ZM75.5176 23.3664C75.5176 22.3041 75.799 21.5377 76.3033 21.0019L75.5751 20.3165C74.8506 21.0863 74.5176 22.1247 74.5176 23.3664H75.5176ZM76.3058 25.7768C75.8002 25.2317 75.5176 24.45 75.5176 23.3664H74.5176C74.5176 24.6252 74.8494 25.6771 75.5726 26.4568L76.3058 25.7768ZM103.738 34.5042C102.286 35.8409 100.16 36.5464 97.28 36.5464V37.5464C100.314 37.5464 102.719 36.8023 104.415 35.2398L103.738 34.5042ZM105.938 28.3488C105.938 31.1598 105.177 33.1793 103.738 34.5042L104.415 35.2398C106.125 33.6655 106.938 31.3362 106.938 28.3488H105.938ZM105.938 15.5904V28.3488H106.938V15.5904H105.938ZM101.226 16.0904H106.438V15.0904H101.226V16.0904ZM101.726 17.4912V15.5904H100.726V17.4912H101.726ZM96.3296 15.8312C98.4418 15.8312 99.9009 16.507 100.82 17.7834L101.631 17.199C100.477 15.5954 98.6718 14.8312 96.3296 14.8312V15.8312ZM92.7343 16.7085C93.8301 16.1247 95.0257 15.8312 96.3296 15.8312V14.8312C94.8687 14.8312 93.5107 15.1617 92.2641 15.8259L92.7343 16.7085ZM90.1334 19.1756C90.7783 18.1098 91.6431 17.2899 92.7343 16.7085L92.2641 15.8259C91.0129 16.4925 90.0153 17.439 89.2778 18.658L90.1334 19.1756ZM89.1688 22.848C89.1688 21.4508 89.4944 20.2318 90.1334 19.1756L89.2778 18.658C88.5344 19.8866 88.1688 21.2884 88.1688 22.848H89.1688ZM90.1334 26.5492C89.495 25.494 89.1688 24.2657 89.1688 22.848H88.1688C88.1688 24.4255 88.5338 25.8372 89.2778 27.0668L90.1334 26.5492ZM92.7343 29.0163C91.6431 28.4349 90.7783 27.615 90.1334 26.5492L89.2778 27.0668C90.0153 28.2858 91.0129 29.2323 92.2641 29.8989L92.7343 29.0163ZM96.3296 29.8936C95.0257 29.8936 93.8301 29.6001 92.7343 29.0163L92.2641 29.8989C93.5107 30.5631 94.8687 30.8936 96.3296 30.8936V29.8936ZM100.587 28.2245C99.6497 29.3155 98.2594 29.8936 96.3296 29.8936V30.8936C98.4702 30.8936 100.171 30.2429 101.346 28.8763L100.587 28.2245ZM101.466 29.0688V28.5504H100.466V29.0688H101.466ZM100.301 32.255C101.105 31.4973 101.466 30.4043 101.466 29.0688H100.466C100.466 30.2293 100.156 31.0179 99.6154 31.5274L100.301 32.255ZM96.7904 33.3416C98.2892 33.3416 99.4964 33.014 100.301 32.255L99.6154 31.5274C99.0764 32.0356 98.1716 32.3416 96.7904 32.3416V33.3416ZM93.7781 32.8732C94.7915 33.1842 95.7962 33.3416 96.7904 33.3416V32.3416C95.9031 32.3416 94.9973 32.2014 94.0715 31.9172L93.7781 32.8732ZM91.2034 31.5582C91.8976 32.1262 92.7608 32.561 93.7781 32.8732L94.0715 31.9172C93.1496 31.6342 92.4096 31.253 91.8366 30.7842L91.2034 31.5582ZM89.9766 35.2319L91.9638 31.4015L91.0762 30.9409L89.089 34.7713L89.9766 35.2319ZM93.0845 36.0438C91.7885 35.7105 90.7052 35.2245 89.8234 34.5947L89.2422 35.4085C90.242 36.1227 91.4435 36.6543 92.8355 37.0122L93.0845 36.0438ZM97.28 36.5464C95.7816 36.5464 94.3838 36.3778 93.0845 36.0438L92.8355 37.0122C94.2242 37.3694 95.7064 37.5464 97.28 37.5464V36.5464ZM97.6256 25.5448C96.7564 25.5448 96.0649 25.2844 95.5145 24.7825L94.8407 25.5215C95.5959 26.21 96.5364 26.5448 97.6256 26.5448V25.5448ZM99.7196 24.785C99.1799 25.2844 98.4949 25.5448 97.6256 25.5448V26.5448C98.7147 26.5448 99.6521 26.21 100.399 25.519L99.7196 24.785ZM100.524 22.848C100.524 23.6609 100.252 24.292 99.7196 24.785L100.399 25.519C101.152 24.8216 101.524 23.9167 101.524 22.848H100.524ZM99.7342 20.9256C100.256 21.4074 100.524 22.0326 100.524 22.848H101.524C101.524 21.7818 101.159 20.8806 100.413 20.1912L99.7342 20.9256ZM97.6256 20.18C98.5193 20.18 99.2075 20.4387 99.7342 20.9256L100.413 20.1912C99.6725 19.5069 98.7287 19.18 97.6256 19.18V20.18ZM95.4998 20.9281C96.0374 20.4387 96.732 20.18 97.6256 20.18V19.18C96.5224 19.18 95.5755 19.5069 94.8266 20.1887L95.4998 20.9281ZM94.6984 22.848C94.6984 22.0351 94.9698 21.4106 95.4998 20.9281L94.8266 20.1887C94.0702 20.8774 93.6984 21.7793 93.6984 22.848H94.6984ZM95.5145 24.7825C94.9729 24.2888 94.6984 23.6585 94.6984 22.848H93.6984C93.6984 23.9191 94.0767 24.8248 94.8407 25.5215L95.5145 24.7825ZM122.107 29.9778C120.842 30.6285 119.405 30.9592 117.786 30.9592V31.9592C119.545 31.9592 121.142 31.5987 122.565 30.867L122.107 29.9778ZM125.048 27.2822C124.35 28.4284 123.374 29.3264 122.107 29.9778L122.565 30.867C123.986 30.136 125.103 29.114 125.902 27.8026L125.048 27.2822ZM126.098 23.3664C126.098 24.8375 125.745 26.1381 125.048 27.2822L125.902 27.8026C126.703 26.4891 127.098 25.0057 127.098 23.3664H126.098ZM125.049 19.4665C125.745 20.6002 126.098 21.8953 126.098 23.3664H127.098C127.098 21.7271 126.703 20.2478 125.901 18.9431L125.049 19.4665ZM122.11 16.7995C123.376 17.4417 124.351 18.3302 125.049 19.4665L125.901 18.9431C125.102 17.641 123.984 16.6287 122.562 15.9077L122.11 16.7995ZM117.786 15.8312C119.406 15.8312 120.844 16.1576 122.11 16.7995L122.562 15.9077C121.14 15.1864 119.544 14.8312 117.786 14.8312V15.8312ZM113.477 16.7989C114.732 16.1576 116.165 15.8312 117.786 15.8312V14.8312C116.027 14.8312 114.436 15.1864 113.022 15.9083L113.477 16.7989ZM110.536 19.4818C111.244 18.3339 112.221 17.4405 113.477 16.7989L113.022 15.9083C111.609 16.6299 110.493 17.6469 109.685 18.9566L110.536 19.4818ZM109.473 23.3664C109.473 21.917 109.829 20.6266 110.536 19.4818L109.685 18.9566C108.875 20.2694 108.473 21.7438 108.473 23.3664H109.473ZM110.536 27.2798C109.83 26.136 109.473 24.8363 109.473 23.3664H108.473C108.473 25.0069 108.874 26.4912 109.685 27.805L110.536 27.2798ZM113.493 29.9778C112.226 29.3262 111.244 28.4274 110.536 27.2798L109.685 27.805C110.493 29.115 111.614 30.1362 113.035 30.867L113.493 29.9778ZM117.786 30.9592C116.186 30.9592 114.759 30.6289 113.493 29.9778L113.035 30.867C114.457 31.5983 116.044 31.9592 117.786 31.9592V30.9592ZM117.786 26.6104C116.955 26.6104 116.304 26.3302 115.791 25.7768L115.057 26.4568C115.773 27.2282 116.696 27.6104 117.786 27.6104V26.6104ZM119.781 25.7768C119.267 26.3302 118.616 26.6104 117.786 26.6104V27.6104C118.875 27.6104 119.798 27.2282 120.514 26.4568L119.781 25.7768ZM120.569 23.3664C120.569 24.45 120.286 25.2317 119.781 25.7768L120.514 26.4568C121.237 25.6771 121.569 24.6252 121.569 23.3664H120.569ZM119.783 21.0019C120.287 21.5377 120.569 22.3041 120.569 23.3664H121.569C121.569 22.1247 121.236 21.0863 120.511 20.3165L119.783 21.0019ZM117.786 20.18C118.619 20.18 119.27 20.4572 119.783 21.0019L120.511 20.3165C119.795 19.5556 118.873 19.18 117.786 19.18V20.18ZM115.788 21.0019C116.301 20.4572 116.953 20.18 117.786 20.18V19.18C116.699 19.18 115.776 19.5556 115.06 20.3165L115.788 21.0019ZM115.002 23.3664C115.002 22.3041 115.284 21.5377 115.788 21.0019L115.06 20.3165C114.335 21.0863 114.002 22.1247 114.002 23.3664H115.002ZM115.791 25.7768C115.285 25.2317 115.002 24.45 115.002 23.3664H114.002C114.002 24.6252 114.334 25.6771 115.057 26.4568L115.791 25.7768ZM135.105 31.2V15.5904H134.105V31.2H135.105ZM129.133 31.7H134.605V30.7H129.133V31.7ZM128.633 15.5904V31.2H129.633V15.5904H128.633ZM134.605 15.0904H129.133V16.0904H134.605V15.0904ZM143.119 29.8176V36.7872H144.119V29.8176H143.119ZM147.968 30.9592C146.251 30.9592 144.94 30.4481 143.976 29.4672L143.263 30.168C144.449 31.3759 146.037 31.9592 147.968 31.9592V30.9592ZM151.594 30.0313C150.513 30.6479 149.308 30.9592 147.968 30.9592V31.9592C149.47 31.9592 150.847 31.6081 152.089 30.8999L151.594 30.0313ZM154.17 27.3992C153.531 28.5427 152.673 29.416 151.594 30.0313L152.089 30.8999C153.334 30.1904 154.319 29.1821 155.043 27.8872L154.17 27.3992ZM155.129 23.3952C155.129 24.9359 154.804 26.2654 154.17 27.3992L155.043 27.8872C155.772 26.5826 156.129 25.0801 156.129 23.3952H155.129ZM154.17 19.3912C154.804 20.525 155.129 21.8545 155.129 23.3952H156.129C156.129 21.7103 155.772 20.2078 155.043 18.9032L154.17 19.3912ZM151.594 16.7591C152.673 17.3744 153.531 18.2477 154.17 19.3912L155.043 18.9032C154.319 17.6083 153.334 16.6 152.089 15.8905L151.594 16.7591ZM147.968 15.8312C149.308 15.8312 150.513 16.1425 151.594 16.7591L152.089 15.8905C150.847 15.1823 149.47 14.8312 147.968 14.8312V15.8312ZM143.743 17.4675C144.638 16.4027 146.014 15.8312 147.968 15.8312V14.8312C145.813 14.8312 144.117 15.4693 142.977 16.8237L143.743 17.4675ZM142.86 15.5904V17.1456H143.86V15.5904H142.86ZM138.147 16.0904H143.36V15.0904H138.147V16.0904ZM138.647 36.7872V15.5904H137.647V36.7872H138.647ZM143.619 36.2872H138.147V37.2872H143.619V36.2872ZM146.816 26.6104C145.985 26.6104 145.334 26.3302 144.821 25.7768L144.088 26.4568C144.803 27.2282 145.727 27.6104 146.816 27.6104V26.6104ZM148.811 25.7768C148.298 26.3302 147.647 26.6104 146.816 26.6104V27.6104C147.905 27.6104 148.829 27.2282 149.544 26.4568L148.811 25.7768ZM149.599 23.3952C149.599 24.4571 149.318 25.2302 148.811 25.7768L149.544 26.4568C150.266 25.6786 150.599 24.6373 150.599 23.3952H149.599ZM148.811 21.0136C149.318 21.5602 149.599 22.3333 149.599 23.3952H150.599C150.599 22.1531 150.266 21.1118 149.544 20.3336L148.811 21.0136ZM146.816 20.18C147.647 20.18 148.298 20.4602 148.811 21.0136L149.544 20.3336C148.829 19.5622 147.905 19.18 146.816 19.18V20.18ZM144.821 21.0136C145.334 20.4602 145.985 20.18 146.816 20.18V19.18C145.727 19.18 144.803 19.5622 144.088 20.3336L144.821 21.0136ZM144.033 23.3952C144.033 22.3333 144.314 21.5602 144.821 21.0136L144.088 20.3336C143.366 21.1118 143.033 22.1531 143.033 23.3952H144.033ZM144.821 25.7768C144.314 25.2302 144.033 24.4571 144.033 23.3952H143.033C143.033 24.6373 143.366 25.6786 144.088 26.4568L144.821 25.7768ZM167.85 30.3294C166.759 30.7439 165.426 30.9592 163.837 30.9592V31.9592C165.512 31.9592 166.972 31.7329 168.205 31.2642L167.85 30.3294ZM170.265 28.6641C169.74 29.3504 168.947 29.9121 167.85 30.3294L168.205 31.2642C169.43 30.7983 170.394 30.1408 171.059 29.2719L170.265 28.6641ZM171.055 26.3328C171.055 27.2021 170.794 27.9737 170.265 28.6641L171.059 29.2719C171.721 28.4071 172.055 27.4219 172.055 26.3328H171.055ZM170.255 23.8964C170.768 24.4403 171.055 25.2294 171.055 26.3328H172.055C172.055 25.0554 171.719 23.9917 170.983 23.2108L170.255 23.8964ZM168.274 22.6651C169.031 22.8888 169.69 23.2962 170.255 23.8964L170.983 23.2108C170.301 22.4862 169.49 21.9816 168.558 21.7061L168.274 22.6651ZM165.145 22.0177C166.419 22.2077 167.46 22.4244 168.274 22.6651L168.558 21.7061C167.683 21.4476 166.593 21.2227 165.293 21.0287L165.145 22.0177ZM162.875 21.5522C163.359 21.71 164.124 21.8636 165.145 22.0176L165.294 21.0288C164.279 20.8756 163.585 20.7316 163.185 20.6014L162.875 21.5522ZM161.868 20.3136C161.868 20.6056 161.96 20.8798 162.156 21.1057C162.344 21.3226 162.6 21.4623 162.875 21.5522L163.185 20.6014C163.02 20.5473 162.944 20.4878 162.911 20.4503C162.887 20.4218 162.868 20.3864 162.868 20.3136H161.868ZM162.749 19.0744C162.251 19.3234 161.868 19.7268 161.868 20.3136H162.868C162.868 20.2476 162.888 20.123 163.196 19.9688L162.749 19.0744ZM164.874 18.7192C163.991 18.7192 163.26 18.819 162.749 19.0744L163.196 19.9688C163.492 19.821 164.029 19.7192 164.874 19.7192V18.7192ZM169.609 19.9341C168.151 19.124 166.57 18.7192 164.874 18.7192V19.7192C166.403 19.7192 167.817 20.0824 169.124 20.8083L169.609 19.9341ZM170.551 16.4539L168.909 20.1691L169.824 20.5733L171.465 16.8581L170.551 16.4539ZM168.113 16.1664C169.191 16.3895 170.07 16.7012 170.762 17.0915L171.254 16.2205C170.448 15.766 169.465 15.4249 168.316 15.1872L168.113 16.1664ZM164.845 15.8312C165.943 15.8312 167.033 15.9429 168.113 16.1664L168.316 15.1872C167.169 14.9499 166.012 14.8312 164.845 14.8312V15.8312ZM160.924 16.473C161.994 16.0507 163.296 15.8312 164.845 15.8312V14.8312C163.206 14.8312 161.773 15.0629 160.557 15.543L160.924 16.473ZM158.531 18.1551C159.059 17.4658 159.845 16.8993 160.924 16.473L160.557 15.543C159.352 16.0191 158.4 16.6814 157.737 17.5473L158.531 18.1551ZM157.742 20.5152C157.742 19.6243 158.004 18.8436 158.531 18.1551L157.737 17.5473C157.074 18.414 156.742 19.4093 156.742 20.5152H157.742ZM158.556 22.9946C158.034 22.4413 157.742 21.638 157.742 20.5152H156.742C156.742 21.8116 157.083 22.8899 157.828 23.6806L158.556 22.9946ZM160.59 24.2392C159.805 24.0148 159.129 23.6023 158.556 22.9946L157.828 23.6806C158.522 24.4169 159.354 24.926 160.315 25.2008L160.59 24.2392ZM163.696 24.8285C162.465 24.677 161.431 24.4796 160.59 24.2392L160.315 25.2008C161.221 25.4596 162.309 25.6654 163.574 25.8211L163.696 24.8285ZM165.933 25.2661C165.438 25.1082 164.687 24.9645 163.703 24.8294L163.567 25.8202C164.542 25.9539 165.221 26.0886 165.629 26.2187L165.933 25.2661ZM166.958 26.4768C166.958 26.1837 166.857 25.9137 166.656 25.6952C166.465 25.4877 166.208 25.3539 165.933 25.2661L165.629 26.2187C165.805 26.2749 165.886 26.3355 165.921 26.3728C165.945 26.3991 165.958 26.4243 165.958 26.4768H166.958ZM166.115 27.7183C166.357 27.6006 166.571 27.4405 166.725 27.2232C166.883 27.0008 166.958 26.7458 166.958 26.4768H165.958C165.958 26.5534 165.939 26.6032 165.909 26.6448C165.876 26.6915 165.81 26.7546 165.677 26.8193L166.115 27.7183ZM164.01 28.0424C164.902 28.0424 165.631 27.9542 166.115 27.7183L165.677 26.8193C165.413 26.9482 164.884 27.0424 164.01 27.0424V28.0424ZM160.973 27.637C161.992 27.9066 163.004 28.0424 164.01 28.0424V27.0424C163.095 27.0424 162.168 26.919 161.229 26.6702L160.973 27.637ZM158.302 26.527C159.063 26.9997 159.955 27.3676 160.973 27.637L161.229 26.6702C160.288 26.4212 159.491 26.0883 158.83 25.6778L158.302 26.527ZM157.383 30.0472L159.024 26.3032L158.108 25.9016L156.467 29.6456L157.383 30.0472ZM160.092 30.526C158.857 30.236 157.896 29.8637 157.19 29.4224L156.66 30.2704C157.49 30.7891 158.564 31.1944 159.863 31.4996L160.092 30.526ZM163.837 30.9592C162.57 30.9592 161.322 30.8148 160.092 30.526L159.863 31.4996C161.168 31.806 162.493 31.9592 163.837 31.9592V30.9592ZM180.483 31.9592C181.447 31.9592 182.366 31.7845 183.234 31.4331L182.859 30.5061C182.114 30.8075 181.324 30.9592 180.483 30.9592V31.9592ZM175.307 30.0286C176.618 31.3294 178.363 31.9592 180.483 31.9592V30.9592C178.572 30.9592 177.1 30.3986 176.011 29.3186L175.307 30.0286ZM173.359 24.3168C173.359 26.7757 173.979 28.7115 175.307 30.0286L176.011 29.3186C174.939 28.2549 174.359 26.6195 174.359 24.3168H173.359ZM173.359 15.5904V24.3168H174.359V15.5904H173.359ZM179.331 15.0904H173.859V16.0904H179.331V15.0904ZM179.831 23.424V15.5904H178.831V23.424H179.831ZM180.38 25.6698C180.047 25.2651 179.831 24.5519 179.831 23.424H178.831C178.831 24.6385 179.057 25.6341 179.607 26.3046L180.38 25.6698ZM181.923 26.2936C181.193 26.2936 180.706 26.067 180.38 25.6698L179.607 26.3046C180.164 26.9826 180.964 27.2936 181.923 27.2936V26.2936ZM183.669 25.5509C183.223 26.0442 182.655 26.2936 181.923 26.2936V27.2936C182.919 27.2936 183.763 26.9382 184.411 26.2219L183.669 25.5509ZM184.361 23.1072C184.361 24.2947 184.099 25.0762 183.669 25.5509L184.411 26.2219C185.076 25.487 185.361 24.4157 185.361 23.1072H184.361ZM184.361 15.5904V23.1072H185.361V15.5904H184.361ZM190.333 15.0904H184.861V16.0904H190.333V15.0904ZM190.833 31.2V15.5904H189.833V31.2H190.833ZM185.12 31.7H190.333V30.7H185.12V31.7ZM184.62 29.5296V31.2H185.62V29.5296H184.62ZM183.234 31.4331C184.109 31.079 184.863 30.556 185.49 29.8659L184.75 29.1933C184.225 29.7704 183.597 30.2074 182.859 30.5061L183.234 31.4331ZM198.818 23.4528V31.2H199.818V23.4528H198.818ZM199.689 20.5045C199.079 21.2093 198.818 22.2232 198.818 23.4528H199.818C199.818 22.34 200.057 21.6067 200.445 21.1595L199.689 20.5045ZM202.083 19.468C201.111 19.468 200.295 19.8063 199.689 20.5045L200.445 21.1595C200.838 20.7057 201.366 20.468 202.083 20.468V19.468ZM204.945 23.1648C204.945 22.0523 204.742 21.1271 204.257 20.4701C203.75 19.7848 202.995 19.468 202.083 19.468V20.468C202.746 20.468 203.171 20.684 203.452 21.0643C203.754 21.4729 203.945 22.1461 203.945 23.1648H204.945ZM204.945 31.2V23.1648H203.945V31.2H204.945ZM209.917 30.7H204.445V31.7H209.917V30.7ZM209.417 23.4528V31.2H210.417V23.4528H209.417ZM210.288 20.5045C209.677 21.2093 209.417 22.2232 209.417 23.4528H210.417C210.417 22.34 210.656 21.6067 211.043 21.1595L210.288 20.5045ZM212.653 19.468C211.696 19.468 210.891 19.8091 210.288 20.5045L211.043 21.1595C211.439 20.7029 211.959 20.468 212.653 20.468V19.468ZM214.786 20.4341C214.266 19.7801 213.531 19.468 212.653 19.468V20.468C213.272 20.468 213.699 20.6743 214.004 21.0571L214.786 20.4341ZM215.514 23.1648C215.514 22.0251 215.303 21.0825 214.786 20.4341L214.004 21.0571C214.313 21.4455 214.514 22.1157 214.514 23.1648H215.514ZM215.514 31.2V23.1648H214.514V31.2H215.514ZM220.486 30.7H215.014V31.7H220.486V30.7ZM219.986 22.272V31.2H220.986V22.272H219.986ZM218.418 17.4113C219.434 18.4356 219.986 20.0234 219.986 22.272H220.986C220.986 19.8742 220.397 17.9868 219.128 16.7071L218.418 17.4113ZM214.179 15.8312C215.992 15.8312 217.386 16.3711 218.418 17.4113L219.128 16.7071C217.874 15.4433 216.206 14.8312 214.179 14.8312V15.8312ZM211.302 16.4209C212.174 16.0297 213.13 15.8312 214.179 15.8312V14.8312C213.001 14.8312 211.903 15.0551 210.893 15.5087L211.302 16.4209ZM209.159 18.0868C209.722 17.366 210.433 16.8111 211.302 16.4209L210.893 15.5087C209.88 15.9633 209.037 16.618 208.371 17.4716L209.159 18.0868ZM206.451 16.3891C207.227 16.7514 207.857 17.302 208.346 18.052L209.184 17.5064C208.597 16.6052 207.825 15.927 206.874 15.4829L206.451 16.3891ZM203.725 15.8312C204.757 15.8312 205.662 16.021 206.451 16.3891L206.874 15.4829C205.935 15.0446 204.881 14.8312 203.725 14.8312V15.8312ZM201.303 16.271C202.036 15.9798 202.841 15.8312 203.725 15.8312V14.8312C202.727 14.8312 201.795 14.9994 200.934 15.3418L201.303 16.271ZM199.429 17.5683C199.954 16.9911 200.577 16.5598 201.303 16.271L200.934 15.3418C200.066 15.6866 199.316 16.2057 198.689 16.8957L199.429 17.5683ZM198.559 15.5904V17.232H199.559V15.5904H198.559ZM193.846 16.0904H199.059V15.0904H193.846V16.0904ZM194.346 31.2V15.5904H193.346V31.2H194.346ZM199.318 30.7H193.846V31.7H199.318V30.7ZM226.246 31.9592C227.308 31.9592 228.219 31.6077 228.944 30.8939L228.243 30.1813C227.72 30.6963 227.067 30.9592 226.246 30.9592V31.9592ZM223.566 30.8966C224.297 31.6058 225.201 31.9592 226.246 31.9592V30.9592C225.448 30.9592 224.798 30.6982 224.262 30.1786L223.566 30.8966ZM222.463 28.2048C222.463 29.2709 222.828 30.1813 223.566 30.8965L224.262 30.1787C223.732 29.6651 223.463 29.0203 223.463 28.2048H222.463ZM223.554 25.5102C222.819 26.2109 222.463 27.1252 222.463 28.2048H223.463C223.463 27.3644 223.731 26.7235 224.244 26.2338L223.554 25.5102ZM226.246 24.4792C225.19 24.4792 224.28 24.8178 223.554 25.5102L224.244 26.2338C224.766 25.7358 225.421 25.4792 226.246 25.4792V24.4792ZM228.956 25.5129C228.237 24.816 227.319 24.4792 226.246 24.4792V25.4792C227.094 25.4792 227.751 25.7376 228.26 26.2311L228.956 25.5129ZM230.03 28.2048C230.03 27.1276 229.68 26.2142 228.956 25.5129L228.26 26.2311C228.765 26.7202 229.03 27.362 229.03 28.2048H230.03ZM228.944 30.8939C229.671 30.178 230.03 29.2685 230.03 28.2048H229.03C229.03 29.0227 228.764 29.6684 228.243 30.1813L228.944 30.8939Z" fill="black"/>
</g>
<path fill-rule="evenodd" clip-rule="evenodd" d="M20.72 0L41.44 41.44H30.8074C16.6534 41.44 7.44762 26.5448 13.7775 13.885L20.72 0Z" fill="#D8D8D8"/>
<circle cx="5.88" cy="35.56" r="5.88" fill="#D8D8D8"/>
<defs>
<filter id="filter0_d_0_286" x="48.716" y="7.5448" width="185.314" height="38.0016" filterUnits="userSpaceOnUse" color-interpolation-filters="sRGB">
<feFlood flood-opacity="0" result="BackgroundImageFix"/>
<feColorMatrix in="SourceAlpha" type="matrix" values="0 0 0 0 0 0 0 0 0 0 0 0 0 0 0 0 0 0 127 0" result="hardAlpha"/>
<feOffset dy="4"/>
<feGaussianBlur stdDeviation="2"/>
<feComposite in2="hardAlpha" operator="out"/>
<feColorMatrix type="matrix" values="0 0 0 0 0 0 0 0 0 0 0 0 0 0 0 0 0 0 0.25 0"/>
<feBlend mode="normal" in2="BackgroundImageFix" result="effect1_dropShadow_0_286"/>
<feBlend mode="normal" in="SourceGraphic" in2="effect1_dropShadow_0_286" result="shape"/>
</filter>
</defs>
</svg>
